<mxfile host="app.diagrams.net" modified="2022-05-16T10:20:19.420Z" agent="5.0 (X11; Linux x86_64) AppleWebKit/537.36 (KHTML, like Gecko) Chrome/101.0.4951.64 Safari/537.36" etag="tA6H6SNXL6EeT_UORnGz" version="18.0.5" type="github">
  <diagram id="le1GQr9fSLHFNYy8nbuf" name="Page-1">
    <mxGraphModel dx="490" dy="267" grid="1" gridSize="10" guides="1" tooltips="1" connect="1" arrows="1" fold="1" page="1" pageScale="1" pageWidth="850" pageHeight="1100" math="0" shadow="0">
      <root>
        <mxCell id="0" />
        <mxCell id="1" parent="0" />
        <mxCell id="Hkj7vmBEc5s1comycsSw-6" value="" style="edgeStyle=orthogonalEdgeStyle;rounded=0;orthogonalLoop=1;jettySize=auto;html=1;entryX=0.017;entryY=0.375;entryDx=0;entryDy=0;entryPerimeter=0;" parent="1" source="Hkj7vmBEc5s1comycsSw-3" target="Hkj7vmBEc5s1comycsSw-7" edge="1">
          <mxGeometry relative="1" as="geometry">
            <mxPoint x="340" y="300" as="targetPoint" />
          </mxGeometry>
        </mxCell>
        <mxCell id="Hkj7vmBEc5s1comycsSw-3" value="Simplify text" style="whiteSpace=wrap;html=1;rounded=0;fillColor=#dae8fc;strokeColor=#6c8ebf;" parent="1" vertex="1">
          <mxGeometry x="198" y="270" width="120" height="60" as="geometry" />
        </mxCell>
        <mxCell id="Hkj7vmBEc5s1comycsSw-10" value="" style="edgeStyle=orthogonalEdgeStyle;rounded=0;orthogonalLoop=1;jettySize=auto;html=1;" parent="1" source="Hkj7vmBEc5s1comycsSw-5" target="Hkj7vmBEc5s1comycsSw-9" edge="1">
          <mxGeometry relative="1" as="geometry">
            <Array as="points">
              <mxPoint x="658" y="300" />
              <mxPoint x="658" y="300" />
            </Array>
          </mxGeometry>
        </mxCell>
        <mxCell id="Hkj7vmBEc5s1comycsSw-5" value="Summarize simplified text (extractive)" style="whiteSpace=wrap;html=1;rounded=0;fillColor=#dae8fc;strokeColor=#6c8ebf;" parent="1" vertex="1">
          <mxGeometry x="518" y="270" width="120" height="60" as="geometry" />
        </mxCell>
        <mxCell id="Hkj7vmBEc5s1comycsSw-8" value="" style="edgeStyle=orthogonalEdgeStyle;rounded=0;orthogonalLoop=1;jettySize=auto;html=1;exitX=1;exitY=0.375;exitDx=0;exitDy=0;exitPerimeter=0;" parent="1" source="Hkj7vmBEc5s1comycsSw-7" target="Hkj7vmBEc5s1comycsSw-5" edge="1">
          <mxGeometry relative="1" as="geometry">
            <Array as="points" />
          </mxGeometry>
        </mxCell>
        <mxCell id="Hkj7vmBEc5s1comycsSw-7" value="Simplified text" style="shape=document;whiteSpace=wrap;html=1;boundedLbl=1;fillColor=#fff2cc;strokeColor=#d6b656;" parent="1" vertex="1">
          <mxGeometry x="358" y="270" width="120" height="80" as="geometry" />
        </mxCell>
        <mxCell id="Hkj7vmBEc5s1comycsSw-9" value="Simplified summary" style="shape=document;whiteSpace=wrap;html=1;boundedLbl=1;rounded=0;fillColor=#d5e8d4;strokeColor=#82b366;" parent="1" vertex="1">
          <mxGeometry x="678" y="270" width="120" height="80" as="geometry" />
        </mxCell>
        <mxCell id="Hkj7vmBEc5s1comycsSw-18" value="" style="edgeStyle=orthogonalEdgeStyle;rounded=0;orthogonalLoop=1;jettySize=auto;html=1;entryX=0.017;entryY=0.375;entryDx=0;entryDy=0;entryPerimeter=0;" parent="1" source="Hkj7vmBEc5s1comycsSw-19" target="Hkj7vmBEc5s1comycsSw-23" edge="1">
          <mxGeometry relative="1" as="geometry">
            <mxPoint x="340" y="500" as="targetPoint" />
            <Array as="points">
              <mxPoint x="338" y="500" />
              <mxPoint x="338" y="500" />
            </Array>
          </mxGeometry>
        </mxCell>
        <mxCell id="Hkj7vmBEc5s1comycsSw-19" value="Summariza text (extractive)" style="whiteSpace=wrap;html=1;rounded=0;fillColor=#dae8fc;strokeColor=#6c8ebf;" parent="1" vertex="1">
          <mxGeometry x="198" y="462" width="120" height="60" as="geometry" />
        </mxCell>
        <mxCell id="Hkj7vmBEc5s1comycsSw-20" value="" style="edgeStyle=orthogonalEdgeStyle;rounded=0;orthogonalLoop=1;jettySize=auto;html=1;" parent="1" source="Hkj7vmBEc5s1comycsSw-21" target="Hkj7vmBEc5s1comycsSw-24" edge="1">
          <mxGeometry relative="1" as="geometry">
            <Array as="points">
              <mxPoint x="658" y="500" />
              <mxPoint x="658" y="500" />
            </Array>
          </mxGeometry>
        </mxCell>
        <mxCell id="Hkj7vmBEc5s1comycsSw-21" value="Simplify summarization" style="whiteSpace=wrap;html=1;rounded=0;fillColor=#dae8fc;strokeColor=#6c8ebf;" parent="1" vertex="1">
          <mxGeometry x="518" y="470" width="120" height="60" as="geometry" />
        </mxCell>
        <mxCell id="Hkj7vmBEc5s1comycsSw-22" value="" style="edgeStyle=orthogonalEdgeStyle;rounded=0;orthogonalLoop=1;jettySize=auto;html=1;exitX=1.001;exitY=0.378;exitDx=0;exitDy=0;exitPerimeter=0;" parent="1" source="Hkj7vmBEc5s1comycsSw-23" target="Hkj7vmBEc5s1comycsSw-21" edge="1">
          <mxGeometry relative="1" as="geometry">
            <Array as="points" />
          </mxGeometry>
        </mxCell>
        <mxCell id="Hkj7vmBEc5s1comycsSw-23" value="Extractive Summarization" style="shape=document;whiteSpace=wrap;html=1;boundedLbl=1;fillColor=#fff2cc;strokeColor=#d6b656;" parent="1" vertex="1">
          <mxGeometry x="358" y="470" width="120" height="80" as="geometry" />
        </mxCell>
        <mxCell id="Hkj7vmBEc5s1comycsSw-24" value="Simplified summary" style="shape=document;whiteSpace=wrap;html=1;boundedLbl=1;rounded=0;fillColor=#d5e8d4;strokeColor=#82b366;" parent="1" vertex="1">
          <mxGeometry x="678" y="470" width="120" height="80" as="geometry" />
        </mxCell>
        <mxCell id="Hkj7vmBEc5s1comycsSw-26" value="&lt;b&gt;Simplify &amp;amp; Summarize&lt;/b&gt;" style="text;html=1;strokeColor=none;fillColor=none;align=center;verticalAlign=middle;whiteSpace=wrap;rounded=0;" parent="1" vertex="1">
          <mxGeometry x="48" y="260" width="110" height="30" as="geometry" />
        </mxCell>
        <mxCell id="Hkj7vmBEc5s1comycsSw-28" value="&lt;b&gt;Summarize &amp;amp;&amp;nbsp;&lt;/b&gt;&lt;b&gt;Simplify&lt;/b&gt;" style="text;html=1;strokeColor=none;fillColor=none;align=center;verticalAlign=middle;whiteSpace=wrap;rounded=0;" parent="1" vertex="1">
          <mxGeometry x="48" y="512" width="110" height="30" as="geometry" />
        </mxCell>
        <mxCell id="Hkj7vmBEc5s1comycsSw-34" style="edgeStyle=orthogonalEdgeStyle;rounded=0;orthogonalLoop=1;jettySize=auto;html=1;exitX=0.5;exitY=0;exitDx=0;exitDy=0;entryX=0;entryY=0.5;entryDx=0;entryDy=0;" parent="1" source="Hkj7vmBEc5s1comycsSw-30" target="Hkj7vmBEc5s1comycsSw-3" edge="1">
          <mxGeometry relative="1" as="geometry" />
        </mxCell>
        <mxCell id="Hkj7vmBEc5s1comycsSw-35" style="edgeStyle=orthogonalEdgeStyle;rounded=0;orthogonalLoop=1;jettySize=auto;html=1;entryX=0;entryY=0.633;entryDx=0;entryDy=0;entryPerimeter=0;exitX=0.502;exitY=0.855;exitDx=0;exitDy=0;exitPerimeter=0;" parent="1" source="Hkj7vmBEc5s1comycsSw-30" target="Hkj7vmBEc5s1comycsSw-19" edge="1">
          <mxGeometry relative="1" as="geometry">
            <Array as="points">
              <mxPoint x="108" y="500" />
            </Array>
          </mxGeometry>
        </mxCell>
        <mxCell id="Hkj7vmBEc5s1comycsSw-30" value="Input text" style="shape=document;whiteSpace=wrap;html=1;boundedLbl=1;rounded=0;fillColor=#fff2cc;strokeColor=#d6b656;" parent="1" vertex="1">
          <mxGeometry x="48" y="360" width="120" height="80" as="geometry" />
        </mxCell>
        <mxCell id="Hkj7vmBEc5s1comycsSw-36" value="" style="rounded=0;whiteSpace=wrap;html=1;dashed=1;fillColor=none;strokeWidth=2;" parent="1" vertex="1">
          <mxGeometry x="41" y="240" width="136" height="320" as="geometry" />
        </mxCell>
        <mxCell id="Hkj7vmBEc5s1comycsSw-37" value="" style="rounded=0;whiteSpace=wrap;html=1;dashed=1;fillColor=none;strokeWidth=2;" parent="1" vertex="1">
          <mxGeometry x="186" y="240" width="470" height="320" as="geometry" />
        </mxCell>
        <mxCell id="Hkj7vmBEc5s1comycsSw-38" value="" style="rounded=0;whiteSpace=wrap;html=1;dashed=1;fillColor=none;strokeWidth=2;" parent="1" vertex="1">
          <mxGeometry x="666" y="240" width="140" height="320" as="geometry" />
        </mxCell>
        <mxCell id="Hkj7vmBEc5s1comycsSw-39" value="&lt;b&gt;Input&lt;/b&gt;" style="text;html=1;strokeColor=none;fillColor=none;align=center;verticalAlign=middle;whiteSpace=wrap;rounded=0;dashed=1;" parent="1" vertex="1">
          <mxGeometry x="78" y="200" width="60" height="30" as="geometry" />
        </mxCell>
        <mxCell id="Hkj7vmBEc5s1comycsSw-40" value="&lt;b&gt;Proposed method&lt;/b&gt;" style="text;html=1;strokeColor=none;fillColor=none;align=center;verticalAlign=middle;whiteSpace=wrap;rounded=0;dashed=1;" parent="1" vertex="1">
          <mxGeometry x="328" y="200" width="160" height="30" as="geometry" />
        </mxCell>
        <mxCell id="Hkj7vmBEc5s1comycsSw-41" value="&lt;b&gt;Output&lt;/b&gt;" style="text;html=1;strokeColor=none;fillColor=none;align=center;verticalAlign=middle;whiteSpace=wrap;rounded=0;dashed=1;" parent="1" vertex="1">
          <mxGeometry x="698" y="200" width="60" height="30" as="geometry" />
        </mxCell>
      </root>
    </mxGraphModel>
  </diagram>
</mxfile>
